<?xml version="1.0" standalone="no"?>
<!DOCTYPE svg PUBLIC "-//W3C//DTD SVG 1.1//EN" "http://www.w3.org/Graphics/SVG/1.1/DTD/svg11.dtd" >
<!--
2013-9-30: Created.
-->
<svg>
<metadata>
Created by iconfont
</metadata>
<defs>

<font id="iconfont" horiz-adv-x="1024" >
  <font-face
    font-family="iconfont"
    font-weight="500"
    font-stretch="normal"
    units-per-em="1024"
    ascent="896"
    descent="-128"
  />
    <missing-glyph />
    
    <glyph glyph-name="icon_chukuguanli" unicode="&#58947;" d="M132.1472 376.2176l160.256-162.304c7.0144-7.168 18.944-2.0992 18.944 7.936V546.5088a11.0592 11.0592 0 0 1-18.944 7.9872l-160.256-162.304a11.3152 11.3152 0 0 1 0-15.9744z m743.424 280.064H162.4576a21.3504 21.3504 0 0 0 0 42.7008H875.52a21.3504 21.3504 0 0 0 0.1024-42.6496z m0-195.6864H463.36a21.3504 21.3504 0 0 0 0 42.7008h412.2624a21.3504 21.3504 0 0 0 0-42.7008z m0-195.584H463.36a21.3504 21.3504 0 0 0 0 42.6496h412.2624a21.3504 21.3504 0 0 0 0-42.6496z m0-195.584H162.4576a21.3504 21.3504 0 0 0 0 42.6496H875.52a21.3504 21.3504 0 0 0 0.1024-42.6496z"  horiz-adv-x="1024" />

    
    <glyph glyph-name="icon_rukuguanli" unicode="&#58948;" d="M317.7472 376.2176l-160.3584-162.4064a11.0592 11.0592 0 0 0-18.944 7.936V546.5088c0 10.0352 11.9296 15.104 18.944 7.9872l160.256-162.304a11.4176 11.4176 0 0 0 0.1024-15.9744z m567.3472 280.064H171.8784a21.3504 21.3504 0 0 0 0 42.7008h713.1136a21.3504 21.3504 0 0 0 0.1024-42.6496z m0-195.6864H472.832a21.3504 21.3504 0 0 0 0 42.7008h412.2624a21.3504 21.3504 0 0 0 0-42.7008z m0-195.584H472.832a21.3504 21.3504 0 0 0 0 42.6496h412.2624a21.3504 21.3504 0 0 0 0-42.6496z m0-195.584H171.8784a21.3504 21.3504 0 0 0 0 42.6496h713.1136a21.3504 21.3504 0 0 0 0.1024-42.6496z"  horiz-adv-x="1024" />

    
    <glyph glyph-name="icon_churukumingxi" unicode="&#58949;" d="M358.912 0a42.9568 42.9568 0 0 0-33.024 15.5648l-187.1872 220.416a45.9776 45.9776 0 0 0 0 58.88l187.1872 220.5696a42.8544 42.8544 0 0 0 47.9744 12.8 44.544 44.544 0 0 0 29.0816-42.2912v-101.5808a21.3504 21.3504 0 1 0-42.6496 0.1024V486.0416c0 1.3312-0.512 1.792-0.5632 1.8944a1.8432 1.8432 0 0 1-0.8704 0.3584s-0.1536-0.1024-0.3584-0.512l-187.1872-220.416a2.9696 2.9696 0 0 1 0-3.6864L358.4 43.1616l0.512-0.512s0.3584 0.1024 0.7168 0.4096c0.2048 0.1536 0.5632 0.512 0.5632 1.8944V146.432a21.3504 21.3504 0 0 0 42.7008 0v-101.5296a44.288 44.288 0 0 0-44.032-44.9536z m306.176 237.056a44.544 44.544 0 0 0-44.0832 44.9536V383.488a21.3504 21.3504 0 0 0 42.7008 0v-101.5808c0-1.3312 0.512-1.792 0.5632-1.8944a1.8432 1.8432 0 0 1 0.8704-0.3584s0.1536 0.1024 0.3584 0.512l187.1872 220.416a2.9696 2.9696 0 0 1 0 3.6864L665.6 724.8384l-0.512 0.512s-0.3584-0.1024-0.7168-0.4096c-0.2048-0.1536-0.5632-0.512-0.5632-1.8944V621.568a21.3504 21.3504 0 0 0-42.752 0V723.0464c0 19.2512 11.3664 35.84 29.0816 42.2912a43.1616 43.1616 0 0 0 47.9744-12.8l187.1872-220.5184a45.9776 45.9776 0 0 0 0-58.88l-187.1872-220.5696a42.9568 42.9568 0 0 0-32.9728-15.5136z m-153.6-111.9232H381.696a21.3504 21.3504 0 0 0 0 42.7008H511.488a21.3504 21.3504 0 0 0 0-42.7008z m130.8672 475.0336H512.512a21.3504 21.3504 0 0 0 0 42.7008h129.8944a21.3504 21.3504 0 0 0 0-42.7008z m0-237.056H381.6448a21.3504 21.3504 0 0 0 0 42.7008h260.7104a21.3504 21.3504 0 0 0 0-42.6496z"  horiz-adv-x="1024" />

    
    <glyph glyph-name="icon_kucunguanli" unicode="&#58950;" d="M512.512 251.2384a20.7872 20.7872 0 0 0-11.7248 3.5328l-362.6496 237.056a21.248 21.248 0 0 0 0 35.6352l362.6496 237.056a21.248 21.248 0 0 0 23.3472 0l362.6496-237.056a21.248 21.248 0 0 0 0-35.6352l-134.7072-88.064a21.2992 21.2992 0 1 0-23.3472 35.584l107.4176 70.144-323.6864 211.6608-323.6864-211.5072 323.6864-211.5584 111.872 73.216a21.2992 21.2992 0 1 0 23.3472-35.6352l-123.648-80.7936a19.6608 19.6608 0 0 0-11.5712-3.584z m0-251.2384a20.7872 20.7872 0 0 0-11.7248 3.5328l-362.6496 237.056a21.248 21.248 0 0 0 0 35.584l134.7584 88.064a21.2992 21.2992 0 1 0 23.296-35.584l-107.4176-70.144 323.6864-211.5584 323.6864 211.5072-323.6864 211.456-111.872-73.216a21.2992 21.2992 0 1 0-23.296 35.6352l123.5968 80.7936a21.248 21.248 0 0 0 23.3472 0l362.6496-237.056a21.248 21.248 0 0 0 0-35.6352l-362.6496-237.056a22.016 22.016 0 0 0-11.776-3.3792z m0 474.112a21.3504 21.3504 0 0 0-21.3504 21.2992V746.6496a21.3504 21.3504 0 0 0 42.6496 0v-251.2384c0-11.776-9.5744-21.3504-21.3504-21.3504z m0-474.112a21.3504 21.3504 0 0 0-21.3504 21.3504v251.2384a21.3504 21.3504 0 0 0 42.6496 0v-251.2384c0-11.776-9.5744-21.3504-21.3504-21.3504z"  horiz-adv-x="1024" />

    
    <glyph glyph-name="icon_tuihuoguanli" unicode="&#58951;" d="M605.952-0.9728h-187.904a21.3504 21.3504 0 0 0-21.3504 21.3504v181.1968a293.4784 293.4784 0 0 0-124.4672 100.608A292.608 292.608 0 0 0 218.0608 472.576c0 78.6944 30.5664 152.6272 86.1184 208.1792A291.6864 291.6864 0 0 0 512 767.0272c78.4896 0 152.3712-30.6176 207.872-86.272a293.1712 293.1712 0 0 0 86.016-208.1792 292.864 292.864 0 0 0-54.1184-170.3936 293.4784 293.4784 0 0 0-124.4672-100.608v-181.1968c0-11.776-9.472-21.3504-21.3504-21.3504z m-166.6048 42.7008h145.408V216.064c0 8.9088 5.5808 16.9984 13.9264 20.0192a252.7232 252.7232 0 0 1 164.5568 236.4928c0 138.752-112.6912 251.8016-251.2384 251.8016S260.7616 611.3792 260.7616 472.576a252.8256 252.8256 0 0 1 164.5568-236.4928 21.4016 21.4016 0 0 0 13.9776-19.968v-174.3872h0.0512z m-21.2992 114.8928h188.0064v-42.6496H418.048v42.6496zM346.624 486.9632a21.2992 21.2992 0 0 0-20.8384 25.8048A190.464 190.464 0 0 0 512 663.4496a21.3504 21.3504 0 0 0 0-42.7008 148.7872 148.7872 0 0 1-144.5888-116.8896 21.3504 21.3504 0 0 0-20.7872-16.896z"  horiz-adv-x="1024" />

    
    <glyph glyph-name="icon_shezhi" unicode="&#58952;" d="M512 203.8272A180.3264 180.3264 0 0 0 331.8272 384 180.3264 180.3264 0 0 0 512 564.1728 180.3264 180.3264 0 0 0 692.1728 384 180.3264 180.3264 0 0 0 512 203.8272z m0 317.6448A137.5744 137.5744 0 0 1 374.528 384 137.5744 137.5744 0 0 1 512 246.528 137.5744 137.5744 0 0 1 649.472 384 137.5744 137.5744 0 0 1 512 521.472zM597.3504 0H426.6496l2.304 92.0576a301.2608 301.2608 0 0 0-128.2048 74.0352l-78.6944-48.0256-85.3504 147.8144 80.9984 44.032A302.848 302.848 0 0 0 208.5888 384c0 25.088 3.072 49.9712 9.1136 74.0352L136.704 502.1184l85.3504 147.8144 78.6944-48.0256a301.2608 301.2608 0 0 0 128.2048 74.0352L426.6496 768h170.7008l-2.304-92.0576a301.2608 301.2608 0 0 0 128.2048-74.0352l78.6944 48.0256 85.3504-147.8144-80.9984-44.032c6.0928-24.1152 9.1136-48.9472 9.1136-74.0864 0-25.088-3.072-49.9712-9.1136-74.0352l80.9984-44.0832-85.3504-147.8144-78.6944 48.0256a301.2608 301.2608 0 0 0-128.2048-74.0352l2.304-92.0576z m-126.976 42.6496h83.1488l-2.048 82.944 17.152 3.84a258.6112 258.6112 0 0 1 135.3728 78.2336l11.8272 12.8512 70.8608-43.3152 41.6256 72.0896-72.8064 39.6288 5.1712 16.7424a259.584 259.584 0 0 1 11.9808 78.2336 259.584 259.584 0 0 1-11.9808 78.2336l-5.1712 16.7936 72.8064 39.6288-41.6256 72.0384-70.8608-43.3152-11.8272 12.9024a259.328 259.328 0 0 1-135.3728 78.2336l-17.2032 3.7888 2.0992 82.944H470.3744l2.048-82.944-17.1008-3.7888A258.6112 258.6112 0 0 1 319.8976 560.128l-11.8272-12.9024-70.8608 43.4176L195.584 518.656l72.8576-39.6288-5.2224-16.7936A259.584 259.584 0 0 1 251.2384 384c0-26.624 3.9936-52.992 11.9808-78.2336l5.2224-16.7936-72.8576-39.6288 41.6256-72.0384 70.8608 43.3152 11.8272-12.9024a259.328 259.328 0 0 1 135.424-78.1824l17.152-3.7888-2.0992-83.0976z"  horiz-adv-x="1075" />

    
    <glyph glyph-name="dingdan" unicode="&#58946;" d="M606.0544 768l258.6624-10.9056c11.1104-0.512 19.9168-9.3696 20.3776-20.3776l10.9056-258.7648a21.1968 21.1968 0 0 0-6.2464-16.0256l-455.68-455.68a21.4016 21.4016 0 0 0-30.2592 0l-269.568 269.568a21.2992 21.2992 0 0 0 0 30.1568l455.7824 455.7824a21.5552 21.5552 0 0 0 16.0256 6.2464z m7.4752-43.008L179.5072 290.816l239.36-239.36 434.0736 434.0224-9.6768 229.7344-229.7344 9.728z m168.448-70.9632a88.1152 88.1152 0 0 0-62.2592-150.272 88.1152 88.1152 0 0 0-62.3104 150.272c34.3552 34.304 90.2144 34.304 124.5184 0z m-99.1744-25.344a52.2752 52.2752 0 0 1 36.9152-89.088 52.2752 52.2752 0 0 1 36.864 89.088 52.2752 52.2752 0 0 1-73.7792 0z"  horiz-adv-x="1024" />

    
    <glyph glyph-name="jiaojieban" unicode="&#58942;" d="M682.6496 192H341.3504a21.3504 21.3504 0 0 0 0 42.6496h341.2992A149.5552 149.5552 0 0 1 832 384a21.3504 21.3504 0 0 0 42.6496 0c0-51.0976-19.968-99.2768-56.4224-135.5776a190.8736 190.8736 0 0 0-135.5776-56.4224z m-512 170.6496A21.3504 21.3504 0 0 0 149.3504 384c0 51.0976 19.968 99.2768 56.4224 135.5776A190.8736 190.8736 0 0 0 341.3504 576h341.2992a21.3504 21.3504 0 0 0 0-42.6496H341.3504A149.5552 149.5552 0 0 1 192 384c0-11.776-9.5744-21.3504-21.3504-21.3504z m398.2336 56.8832a21.2992 21.2992 0 0 0-15.0528 36.4032l98.6624 98.7136-98.6624 98.7136a21.2992 21.2992 0 1 0 30.1568 30.1568l113.7664-113.7664a21.2992 21.2992 0 0 0 0-30.208l-0.2048-0.1536-113.5616-113.5616a21.1968 21.1968 0 0 0-15.104-6.2976zM455.168 78.2336a21.1968 21.1968 0 0 0-15.104 6.2464l-113.7664 113.7664a21.2992 21.2992 0 0 0 0 30.208l0.2048 0.1536 113.5616 113.5616a21.2992 21.2992 0 1 0 30.208-30.1568l-98.7136-98.6624 98.6624-98.7136a21.2992 21.2992 0 0 0-15.0528-36.4032z"  horiz-adv-x="1024" />

    
    <glyph glyph-name="kucun" unicode="&#58943;" d="M512 0l-331.8272 192v384L512 768l331.8272-192v-384L512 0z m-289.1776 216.6272L512 49.3056l289.1776 167.3216V551.424L512 718.6944 222.8224 551.3728v-334.7456zM512 235.1616l-128.6656 74.3936V458.4448L512 532.8384l128.6656-74.3936v-148.8896L512 235.1616z m-86.016 99.072l86.016-49.7664 86.016 49.7664V433.7664L512 483.5328l-86.016-49.7664v-99.5328z m23.9104 130.6624c-53.4528 48.7936-146.1248 77.9264-247.808 77.9264v42.6496c112.128 0 215.5008-33.28 276.6336-89.088l-28.8256-31.488z m373.0944-281.5488c-111.9744 0-215.3984 33.2288-276.5824 88.7808l28.7232 31.5392c53.6064-48.64 146.2272-77.7216 247.9616-77.7216v-42.5984h-0.1024zM221.696 192.3072l-37.0688 20.992c55.296 97.4336 135.0144 170.9056 213.4016 196.7616l13.3632-40.448c-68.608-22.6816-139.5712-88.9856-189.696-177.3056z m404.2752 165.9904l-13.1584 40.6016c68.8128 22.3744 140.1344 88.832 190.5664 177.7664l37.0688-21.0432c-55.552-98.048-135.7824-171.7248-214.528-197.3248z m-130.9184-343.9104c-56.1664 96.768-79.36 202.8544-62.3104 283.648l41.728-8.8576c-15.0016-70.8096 6.5024-165.5296 57.4464-253.3376l-36.864-21.4528z m97.0752 455.0656l-41.728 8.96c15.36 70.9632-6.0928 166.144-57.344 254.72l36.864 21.4016c56.5248-97.4848 79.7184-204.032 62.208-285.0816z"  horiz-adv-x="1024" />

    
    <glyph glyph-name="meirijiesuan" unicode="&#58944;" d="M512.2048 768a382.8736 382.8736 0 0 0 271.4624-112.4352 382.8736 382.8736 0 0 0 112.4352-271.4624 382.8736 382.8736 0 0 0-112.4352-271.4624 382.8736 382.8736 0 0 0-122.0608-82.2784 377.9584 377.9584 0 0 0-149.4016-30.3616 382.8736 382.8736 0 0 0-271.4624 112.4352 382.8736 382.8736 0 0 0-112.4352 271.4624A382.8736 382.8736 0 0 0 240.7424 655.36a382.8736 382.8736 0 0 0 122.0096 82.2784 378.3168 378.3168 0 0 0 149.4528 30.3616m0 42.6496a426.7008 426.7008 0 1 1 0.0512-853.4016 426.7008 426.7008 0 0 1-0.0512 853.4016z m189.5936-355.9936H322.56a21.3504 21.3504 0 0 0 0 42.6496h379.2384a21.3504 21.3504 0 0 0 0-42.6496z m-37.632-151.2448H360.7552a21.3504 21.3504 0 0 0 0 42.6496h303.4112a21.3504 21.3504 0 0 0 0-42.6496z m-151.9616-179.712a21.3504 21.3504 0 0 0-21.3504 21.3504V475.9552a21.3504 21.3504 0 0 0 42.6496 0v-330.9056c0-11.776-9.472-21.2992-21.2992-21.2992z m0 373.6064a21.2992 21.2992 0 0 0-15.0528 36.4032l104.2432 104.2944a21.2992 21.2992 0 1 0 30.208-30.1568l-104.3456-104.2944a20.992 20.992 0 0 0-15.0528-6.2464z m0 0a21.1968 21.1968 0 0 0-15.104 6.2464L392.8064 607.8464a21.2992 21.2992 0 1 0 30.208 30.208l104.2432-104.3456a21.2992 21.2992 0 0 0-15.0528-36.4032z"  horiz-adv-x="1024" />

    
    <glyph glyph-name="shoukuan" unicode="&#58945;" d="M784.384 190.1056H377.344a21.4016 21.4016 0 0 0-20.736 16.2816L269.7728 566.784a21.2992 21.2992 0 0 0 20.736 26.3168h584.192c6.5024 0 12.8-3.0208 16.7424-8.192a21.504 21.504 0 0 0 3.8912-18.3296l-90.2656-360.2944a21.2992 21.2992 0 0 0-20.6848-16.128z m-390.2464 42.6496h373.5552l79.5648 317.6448H317.6448l76.4928-317.6448z m389.0176-137.9328h-382.464a21.4016 21.4016 0 0 0-20.7872 16.2816L230.0928 725.3504H149.3504a21.3504 21.3504 0 0 0 0 42.6496H246.784c9.8816 0 18.432-6.7072 20.7872-16.3328l149.9136-614.1952h365.6704a21.3504 21.3504 0 0 0 0-42.6496zM399.0528 0a68.8128 68.8128 0 0 0 0 137.472 68.8128 68.8128 0 0 0 0-137.472z m0 94.8224a26.0608 26.0608 0 1 1 0-52.1216 26.0608 26.0608 0 0 1 0 52.1216z m382.8736-94.8224a68.8128 68.8128 0 0 0 0 137.472 68.8128 68.8128 0 0 0 0-137.472z m0 94.8224a26.0608 26.0608 0 1 1 0-52.1216 26.0608 26.0608 0 0 1 0 52.1216z"  horiz-adv-x="1024" />

    
    <glyph glyph-name="dianyuanguanli" unicode="&#58941;" d="M166.13181 138.922667a20.333714 20.333714 0 0 0-20.284953 20.333714v88.649143c0 22.576762 12.678095 44.519619 37.839238 65.194666 17.505524 14.482286 41.545143 28.769524 71.387429 42.374096 10.142476 4.681143 20.23619 8.923429 29.988571 12.824381a82.553905 82.553905 0 0 0-27.696762 23.893333A97.816381 97.816381 0 0 0 238.933333 449.048381V522.873905c0 35.693714 12.385524 65.29219 35.644953 85.625905 21.601524 18.773333 51.492571 28.720762 86.454857 28.720761a20.333714 20.333714 0 0 0 0-40.667428c-24.478476 0-81.432381-7.216762-81.432381-73.776762v-73.874286c0-8.484571 2.584381-50.712381 54.320762-51.638857 0.828952 0 1.609143-0.097524 2.438095-0.146286 18.67581-2.535619 28.086857-4.388571 28.428191-4.388571a20.284952 20.284952 0 0 0 1.609142-39.545905c-0.390095-0.048762-47.981714-13.409524-94.695619-34.816-53.345524-24.576-85.138286-50.858667-85.138285-70.460952v-88.649143a20.431238 20.431238 0 0 0-20.431238-20.333714z m690.809904 0a20.333714 20.333714 0 0 0-20.333714 20.333714v88.649143c0 19.602286-31.939048 46.08-85.577143 70.607238a712.508952 712.508952 0 0 1-94.354286 34.718476 20.382476 20.382476 0 0 0 1.609143 39.497143c0.341333 0.097524 9.752381 1.852952 28.428191 4.388571l2.438095 0.146286c51.736381 0.828952 54.369524 43.154286 54.369524 51.687619V522.727619c0 66.56-56.953905 73.776762-81.432381 73.776762a20.333714 20.333714 0 0 0 0 40.667429c35.011048 0 64.902095-9.947429 86.406095-28.769524 23.30819-20.382476 35.644952-49.883429 35.644952-85.577143v-73.874286c0-9.557333-1.80419-34.279619-18.383238-56.758857-6.046476-8.143238-14.921143-17.066667-27.745523-23.942095 9.654857-3.900952 19.797333-8.143238 29.988571-12.824381 29.891048-13.750857 53.930667-27.989333 71.43619-42.374095 25.112381-20.675048 37.839238-42.617905 37.839239-65.194667v-88.649143a20.284952 20.284952 0 0 0-20.333715-20.333714zM512.097524 644.144762c23.990857 0 46.567619-9.362286 63.731809-26.526476 17.16419-17.16419 26.575238-39.740952 26.575238-63.780572v-108.251428c0-24.039619-9.411048-46.616381-26.575238-63.73181a89.478095 89.478095 0 0 0-63.731809-26.575238H512c-24.039619 0-46.616381 9.411048-63.73181 26.575238a89.478095 89.478095 0 0 0-26.575238 63.73181v108.251428c0 24.039619 9.411048 46.616381 26.575238 63.780572A89.478095 89.478095 0 0 0 512 644.144762h0.097524m0 40.667428H512a131.31581 131.31581 0 0 1-130.925714-130.974476v-108.251428A131.31581 131.31581 0 0 1 512 314.660571h0.097524a131.31581 131.31581 0 0 1 130.925714 130.925715v108.251428a131.364571 131.364571 0 0 1-130.925714 130.974476zM512 297.301333c87.137524 0 148.382476-20.382476 184.368762-37.546666 37.790476-17.993143 57.295238-36.327619 64.024381-44.373334v-140.092952H263.606857v140.141714c6.729143 7.996952 26.233905 26.331429 64.024381 44.324572 35.986286 17.16419 97.231238 37.546667 184.368762 37.546666m0 40.667429c-193.536 0-289.060571-93.281524-289.060571-113.956572v-168.326095c0-11.556571 8.679619-21.065143 19.260952-21.065143h539.599238c10.581333 0 19.260952 9.508571 19.260952 21.065143v168.326095c0 20.675048-95.573333 113.956571-289.060571 113.956572z"  horiz-adv-x="1024" />

    
    <glyph glyph-name="shangpinliebiao" unicode="&#58930;" d="M760.832 725.3504H263.168A92.672 92.672 0 0 1 170.6496 632.832v-497.664c0-50.944 41.5232-92.4672 92.6208-92.4672h268.8a21.3504 21.3504 0 0 1 0 42.6496h-268.8a49.92 49.92 0 0 0-49.92 49.8688V632.832c0 27.5456 22.3744 49.8176 49.92 49.8176h497.4592c27.5968 0 49.92-22.3232 49.92-49.92v-311.4496a21.3504 21.3504 0 0 1 42.7008 0V632.7296c0 51.0976-41.4208 92.5696-92.5184 92.6208M383.5904 596.8896a21.3504 21.3504 0 0 1-21.3504-21.2992v-87.5008c0-81.7152 66.9696-148.1216 149.3504-148.1216 82.3296 0 149.2992 66.4064 149.2992 148.0704v87.552a21.3504 21.3504 0 1 1-42.6496 0v-87.5008c0-58.112-47.872-105.3696-106.6496-105.3696-58.8288 0-106.7008 47.2576-106.7008 105.3696V575.5904a21.3504 21.3504 0 0 1-21.2992 21.2992m447.0784-339.5584h-218.624a21.3504 21.3504 0 0 1 0-42.6496h218.624a21.3504 21.3504 0 0 1 0 42.6496m0-85.3504h-218.624a21.3504 21.3504 0 0 1 0-42.6496h218.624a21.3504 21.3504 0 0 1 0 42.6496m0-87.04h-218.624a21.3504 21.3504 0 0 1 0-42.7008h218.624a21.3504 21.3504 0 0 1 0 42.6496"  horiz-adv-x="1024" />

    
    <glyph glyph-name="dianpuxiaoshoue" unicode="&#58931;" d="M836.7616 118.528H187.2384A59.2896 59.2896 0 0 0 128 177.7664V666.112c0 32.768 26.5728 59.2896 59.2384 59.2896h649.5232c32.6656 0 59.2384-26.5728 59.2384-59.2896v-488.2944c0-32.7168-26.5728-59.2384-59.2384-59.2384zM187.2384 682.6496a16.6912 16.6912 0 0 1-16.5888-16.5888v-488.2944c0-9.1136 7.5264-16.5888 16.5888-16.5888h649.5232a16.6912 16.6912 0 0 1 16.5888 16.5888V666.112a16.6912 16.6912 0 0 1-16.5888 16.5888H187.2384z m275.8144-424.2944a21.248 21.248 0 0 0-17.3056 9.0112L347.136 405.7088l-76.8-76.288a21.2992 21.2992 0 1 0-30.0544 30.208l94.6688 94.0544a21.2992 21.2992 0 0 0 32.4096-2.7648l86.016-120.832 53.9136 220.2112a21.2992 21.2992 0 1 0 37.376 8.2432l146.176-182.016 62.464 63.232a21.3504 21.3504 0 0 0 30.208 0.2048 21.3504 21.3504 0 0 0 0.1536-30.208l-79.2576-80.2816a21.4016 21.4016 0 0 0-31.8464 1.6384L538.5728 498.176 483.84 274.688a21.2992 21.2992 0 0 0-20.7872-16.3328z m371.3024-215.7056H189.6448a21.3504 21.3504 0 0 0 0 42.7008h644.7104a21.3504 21.3504 0 0 0 0-42.7008z"  horiz-adv-x="1024" />

    
    <glyph glyph-name="yingyebaobiao" unicode="&#58932;" d="M835.1232 25.2928H185.6512a59.2896 59.2896 0 0 0-59.2384 59.2896V634.7776c0 32.7168 26.5216 59.2896 59.2384 59.2896H835.072c32.7168 0 59.2896-26.5728 59.2896-59.2896V84.48c0-32.6144-26.5728-59.1872-59.2896-59.1872zM185.6512 651.3664a16.6912 16.6912 0 0 1-16.5888-16.5888V84.48c0-9.1136 7.4752-16.5888 16.5888-16.5888H835.072a16.6912 16.6912 0 0 1 16.5888 16.5888V634.7776a16.6912 16.6912 0 0 1-16.5888 16.5888H185.6512z m522.5984-51.712a21.3504 21.3504 0 0 0-21.2992 21.2992V724.5824a21.3504 21.3504 0 0 0 42.6496 0V621.056a21.4016 21.4016 0 0 0-21.3504-21.4528z m-197.8368 0a21.3504 21.3504 0 0 0-21.3504 21.2992V724.5824a21.3504 21.3504 0 0 0 42.6496 0V621.056a21.3504 21.3504 0 0 0-21.2992-21.4528z m-197.7856 0a21.3504 21.3504 0 0 0-21.3504 21.2992V724.5824a21.3504 21.3504 0 0 0 42.6496 0V621.056a21.4016 21.4016 0 0 0-21.2992-21.4528z m425.8816-139.1616H282.4704a21.3504 21.3504 0 0 0 0 42.7008h456.0384a21.3504 21.3504 0 0 0 0-42.7008z m0-144.4864H282.4704a21.3504 21.3504 0 0 0 0 42.7008h456.0384a21.3504 21.3504 0 0 0 0-42.7008z m0-144.4864H282.4704a21.3504 21.3504 0 0 0 0 42.6496h456.0384a21.3504 21.3504 0 0 0 0-42.6496z"  horiz-adv-x="1024" />

    
    <glyph glyph-name="dianpuguanli" unicode="&#58933;" d="M789.3504 0H234.6496a21.3504 21.3504 0 0 0-21.2992 21.3504v318.2592a21.3504 21.3504 0 0 0 42.6496 0v-296.96h512v296.96a21.3504 21.3504 0 0 0 42.6496 0v-318.2592c0-11.776-9.5744-21.3504-21.2992-21.3504z m85.2992 384a21.1456 21.1456 0 0 0-14.592 5.7856L512 717.3632 163.9424 389.7856a21.2992 21.2992 0 1 0-29.184 31.0784l362.6496 341.3504a21.1968 21.1968 0 0 0 29.184 0L889.344 420.864a21.4016 21.4016 0 0 0-14.6432-36.864z m-318.1056-384H457.0112a42.752 42.752 0 0 0-42.6496 42.6496v275.968c0 23.4496 19.1488 42.6496 42.6496 42.6496h99.5328c23.552 0 42.7008-19.2 42.7008-42.7008v-275.9168c0-23.5008-19.1488-42.6496-42.7008-42.6496z m-99.5328 42.6496h99.5328v275.968H457.0112v-275.968z"  horiz-adv-x="1024" />

    
    <glyph glyph-name="dingdanguanli" unicode="&#58934;" d="M470.528 227.4816a33.1776 33.1776 0 0 0-25.088 11.5712l-100.864 117.76 32.4096 27.7504 93.4912-109.1072L645.632 481.792a21.3504 21.3504 0 0 0 32.512-27.5968l-182.784-215.3984a32.5632 32.5632 0 0 0-24.832-11.3664c0.1024 0 0 0 0 0z m339.456-227.328H212.6848a43.4176 43.4176 0 0 0-42.7008 44.032V677.5296c0 24.2688 19.1488 44.032 42.7008 44.032H355.328a21.3504 21.3504 0 0 0 0-42.7008H213.1456c-0.2048-0.1536-0.3584-0.6656-0.3584-1.3312v-633.344c0-0.6656 0.256-1.024 0.3584-1.3312h596.48c0.2048 0.2048 0.3584 0.6656 0.3584 1.3312V677.5296c0 0.6656-0.256 1.024-0.3584 1.3312h-142.2336a21.3504 21.3504 0 0 0 0 42.7008h142.6944c23.552 0 42.7008-19.7632 42.7008-44.032v-633.344c-0.1024-24.2688-19.2512-44.032-42.8032-44.032zM645.12 603.0848H377.6512a44.1856 44.1856 0 0 0-44.0832 44.032V724.1728c0 24.2688 19.8144 44.032 44.032 44.032H645.12c24.2688 0 44.0832-19.7632 44.0832-44.032v-77.0048a44.1344 44.1344 0 0 0-44.0832-44.0832zM377.6512 725.504a1.4336 1.4336 0 0 1-1.4336-1.3824v-77.0048c0-0.768 0.6656-1.4336 1.4336-1.4336H645.12a1.4336 1.4336 0 0 1 1.4336 1.4336V724.1216a1.4336 1.4336 0 0 1-1.4336 1.3824H377.6512z"  horiz-adv-x="1024" />

    
    <glyph glyph-name="tuichu" unicode="&#58935;" d="M515.072-0.2048H213.2992c-23.552 0-42.7008 20.3776-42.7008 45.568V722.2272c0 25.1392 19.1488 45.568 42.7008 45.568h301.6704a21.3504 21.3504 0 0 0 0-42.7008H214.0672a5.12 5.12 0 0 1-0.7168-2.8672v-676.9664a5.12 5.12 0 0 1 0.7168-2.816h300.8512a21.3504 21.3504 0 0 0 0.1024-42.7008z m354.816 362.8544a21.1968 21.1968 0 0 0-15.0528 6.2976l-100.9664 101.376a21.2992 21.2992 0 1 0 30.208 30.0032l101.0176-101.376a21.2992 21.2992 0 0 0-15.1552-36.3008z m-100.9152-101.376a21.3504 21.3504 0 0 0-15.2064 36.4544l100.9664 101.376a21.3504 21.3504 0 0 0 30.208 0.0512 21.3504 21.3504 0 0 0 0.0512-30.1568l-100.864-101.376a21.504 21.504 0 0 0-15.1552-6.2976z m100.9664 101.376h-351.8464a21.3504 21.3504 0 0 0 0 42.7008h351.8464a21.3504 21.3504 0 0 0 0-42.7008z"  horiz-adv-x="1024" />

    
    <glyph glyph-name="shangpinshezhi" unicode="&#58936;" d="M895.488 342.8352a20.0704 20.0704 0 0 1-24.9344 13.6704l-67.584-19.5584a19.8144 19.8144 0 0 1-10.9056-8.2432 20.1216 20.1216 0 0 1-4.4032-8.192 274.1248 274.1248 0 0 0-37.4784-87.9104 19.968 19.968 0 0 1 1.3312-23.3984l29.0304-49.92-43.52-43.52-52.0192 30.0544a19.8144 19.8144 0 0 1-15.4624 1.792 19.5584 19.5584 0 0 1-9.984-2.4576 281.6 281.6 0 0 0-83.5072-33.3824 20.0704 20.0704 0 0 1-17.152-14.7456l-15.5136-57.856H481.792l-15.5648 58.368a20.1216 20.1216 0 0 1-17.152 14.7456l-0.3584 0.256a279.296 279.296 0 0 0-86.4256 36.4544c-1.2288 0.768-2.56 1.024-3.7888 1.536-0.768 0.1536-1.3824 0.512-2.1504 0.7168a18.944 18.944 0 0 1-6.912 0.512h-0.3584a19.456 19.456 0 0 1-9.7792-3.8912l-49.664-28.6208-43.52 43.52 30.3616 52.3264a19.968 19.968 0 0 1-2.4576 23.1424c-0.1536 0.3584-0.1536 0.6144-0.3072 0.8704a275.6096 275.6096 0 0 0-33.3824 81.408c-0.2048 0.9216-0.8704 1.6896-1.2288 2.6624a19.8144 19.8144 0 0 1-13.7728 13.8752l-57.088 15.5648V414.208l57.1392 15.5136a20.0704 20.0704 0 0 1 14.6432 17.2544c0.1536 0.4096 0.6144 0.6144 0.6656 1.1264 7.168 29.952 19.3536 58.5216 36.0448 84.48 0.8704 1.28 1.1264 2.7136 1.6384 4.1472 0.4096 1.024 0.9216 1.9456 1.1264 3.0208 0.1024 0.4096 0 0.8192 0.1024 1.28a19.712 19.712 0 0 1-2.1504 13.2608l-30.0032 52.0704 43.52 43.4176 52.3776-30.3616c3.072-1.8432 6.5024-2.7648 10.0352-2.7648a20.1216 20.1216 0 0 1 10.8032 3.5328c1.0752 0.4096 2.2016 0.2048 3.2768 0.9216a279.3984 279.3984 0 0 0 82.944 33.6896 19.6608 19.6608 0 0 1 5.9904 2.7136 18.3296 18.3296 0 0 1 5.0176 4.5568c0.8192 0.9728 1.536 2.048 2.1504 3.1232 0.768 1.4336 2.2016 2.304 2.6624 3.9936l15.5648 58.4704h61.5424l15.5136-57.9072c0.4608-1.7408 1.9968-2.7136 2.8672-4.3008a18.7904 18.7904 0 0 1 7.5776-7.68c1.7408-1.024 3.6352-1.8432 5.632-2.3552 31.1296-6.8096 60.672-18.8928 87.7568-35.6864 0.6144-0.3072 1.28-0.2048 1.8432-0.512a20.0704 20.0704 0 0 1 10.6496-3.4304c3.584 0 7.0656 1.024 10.1376 2.816l52.3264 30.3104 43.52-43.4688-30.0544-51.968a19.6608 19.6608 0 0 1-0.3584-18.5856c0.512-1.3824 0.7168-2.7648 1.536-3.9936 16.1792-25.6 27.904-53.5552 34.9696-82.7904 0.2048-1.1776 1.28-1.7408 1.6896-2.7648a19.968 19.968 0 0 1 13.9264-15.5136l67.584-19.6096a20.1728 20.1728 0 0 1 11.2128 38.7584l-58.0608 16.7936a314.112 314.112 0 0 1-32.2048 76.8512l32.3584 56.064a19.968 19.968 0 0 1-4.5056 25.088c-0.4608 0.512-0.7168 1.2288-1.2288 1.792L757.76 685.8752c-0.512 0.512-1.2288 0.768-1.8432 1.28a19.7632 19.7632 0 0 1-24.9856 4.4032l-56.4736-32.768a318.3104 318.3104 0 0 1-79.616 32.4608l-16.5888 61.7984a19.968 19.968 0 0 1-20.6848 14.4896c-0.768 0.1024-1.536 0.4608-2.3552 0.4608H469.9136c-0.8192 0-1.536-0.3584-2.3552-0.4096a19.8656 19.8656 0 0 1-20.6848-14.5408l-16.64-62.5664a318.1568 318.1568 0 0 1-75.7248-30.9248l-56.6784 32.8192a19.8144 19.8144 0 0 1-25.0368-4.4032c-0.5632-0.512-1.28-0.7168-1.8432-1.28L210.5856 626.4832c-0.5632-0.6144-0.8192-1.3824-1.28-2.048a19.8144 19.8144 0 0 1-4.4032-24.832l32.256-56.0128a313.344 313.344 0 0 1-32.8192-77.824l-61.44-16.5888a19.8656 19.8656 0 0 1-14.4896-20.8384c-0.0512-0.768-0.4096-1.3824-0.4096-2.2016v-85.3504c0-0.768 0.3584-1.4336 0.4096-2.1504a19.8656 19.8656 0 0 1 14.4384-20.8384l61.5936-16.6912c7.168-26.624 17.5616-51.968 31.3344-75.776l-32.256-55.808a19.968 19.968 0 0 1 4.4544-24.9856c0.512-0.5632 0.7168-1.2288 1.28-1.792l60.3136-60.3648c0.8704-0.8192 1.9456-1.28 2.8672-1.9456a20.0192 20.0192 0 0 1 13.9264-6.5536 19.968 19.968 0 0 1 9.984 2.7136l56.0128 32.256c24.3712-14.2848 50.5856-25.2416 77.8752-32.6144l16.64-62.4128a20.1216 20.1216 0 0 1 19.456-14.9504c0.7168 0 1.4336 0.2048 2.1504 0.256 0.512 0 0.9216-0.256 1.3824-0.256h85.3504c0.512 0 0.9728 0.256 1.4848 0.256 0.7168-0.1024 1.4336-0.256 2.0992-0.256 9.1136 0 17.1008 6.144 19.456 14.8992l16.64 61.7984a321.1264 321.1264 0 0 1 77.3632 31.0784l58.0096-33.4848c3.072-1.7408 6.5024-2.7136 10.0352-2.7136 5.2736 0.256 10.24 2.56 13.824 6.4512 0.9728 0.7168 2.0992 1.1264 2.9696 1.9968l60.3136 60.3136c0.512 0.6144 0.768 1.28 1.28 1.8944a19.8144 19.8144 0 0 1 4.4544 24.9344l-32.768 56.576c14.592 24.576 25.7536 50.944 33.28 78.4896l58.112 16.896a20.1216 20.1216 0 0 1 13.7216 24.9344m-277.0944 147.2H399.7184a21.3504 21.3504 0 0 1 0-42.7008h218.624a21.3504 21.3504 0 0 1 0 42.7008m0-85.3504h-218.624a21.3504 21.3504 0 0 1 0-42.6496h218.624a21.3504 21.3504 0 1 1 0 42.6496m0-87.1424h-218.624a21.3504 21.3504 0 1 1 0-42.6496h218.624a21.3504 21.3504 0 0 1 0 42.6496"  horiz-adv-x="1024" />

    
    <glyph glyph-name="tuidanguanli" unicode="&#58937;" d="M588.288 0H227.584c-31.3856 0-56.832 25.6-56.832 57.1904V710.8096c0 31.488 25.4464 57.1904 56.832 57.1904h568.9344c31.3856 0 56.832-25.6 56.832-57.1904v-487.9872h-42.6496V710.8096a14.592 14.592 0 0 1-14.1824 14.5408H227.5328c-7.68 0-14.1824-6.656-14.1824-14.5408v-653.6192c0-7.8848 6.5024-14.5408 14.1824-14.5408h360.8064v-42.6496zM312.064 622.08h400.0256v-42.6496H312.0128V622.08z m0-134.3488h400.0256v-42.6496H312.0128v42.6496z m340.5824-180.736a104.5504 104.5504 0 0 0 103.8336-104.96c0-28.0576-10.8032-54.528-30.5152-74.3424-19.6608-19.712-45.6192-30.6176-73.3184-30.6176a104.5504 104.5504 0 0 0-103.8336 104.96 104.5504 104.5504 0 0 0 103.8336 104.96m0 42.7008c-80.896 0-146.432-66.0992-146.432-147.6608 0-81.5104 65.536-147.6096 146.432-147.6096 80.896 0 146.4832 66.048 146.4832 147.6096s-65.536 147.6608-146.432 147.6608z m-153.088 3.2256H312.5248v-42.3936h154.8288c9.0112 15.4624 19.8144 29.696 32.1536 42.3936z m-31.8976-42.8544H312.0128v43.3152H500.736l-0.768-0.768a214.5792 214.5792 0 0 1-32.1536-42.2912l-0.2048-0.256z m-154.624 0.9216h154.112c8.704 15.0016 19.2 28.928 31.3344 41.472H312.9856v-41.472z m124.928-109.7216c0 6.0928 0.3072 11.9808 0.8192 17.92H312.5248v-42.3424H439.296a206.7968 206.7968 0 0 0-1.3824 24.4224z m2.048-24.9856H312.0128v43.3152H439.296v-0.512a227.9424 227.9424 0 0 1 0.512-42.24l0.1536-0.5632z m-126.976 0.9216h125.952a228.7616 228.7616 0 0 0-0.7168 41.472H312.9856v-41.472zM832 0a21.4016 21.4016 0 0 0-15.1552 6.2464l-75.776 76.3392a21.2992 21.2992 0 1 0 30.208 30.0544l75.776-76.288a21.2992 21.2992 0 0 0-15.0528-36.352z"  horiz-adv-x="1024" />

    
    <glyph glyph-name="xiugaimima" unicode="&#58938;" d="M755.712 0H267.3152a42.752 42.752 0 0 0-42.6496 42.6496v336.5888c0 23.552 19.1488 42.7008 42.6496 42.7008h488.2944c23.552 0 42.7008-19.1488 42.7008-42.7008v-336.5888c0-23.5008-19.1488-42.6496-42.7008-42.6496z m-488.3456 379.2384v-336.5888h488.2944v336.5888H267.3664z m-21.2992-57.856a21.3504 21.3504 0 0 0-21.3504 21.3504V481.1776a285.696 285.696 0 0 0 84.2752 202.5472 288.3072 288.3072 0 0 0 91.136 61.5936A282.368 282.368 0 0 0 511.488 768c63.3344 0 123.392-20.3776 173.8752-59.0848a289.792 289.792 0 0 0 101.8368-148.8384 21.3504 21.3504 0 0 0-40.96-11.776A245.6576 245.6576 0 0 1 511.488 725.3504a244.4288 244.4288 0 0 1-244.1728-244.1728v-138.4448c0-11.776-9.5744-21.2992-21.2992-21.2992z m265.9328-4.7104a37.2736 37.2736 0 1 0 21.4016-68.4032l-0.0512-58.1632a21.3504 21.3504 0 0 0-42.7008 0v58.1632A37.2736 37.2736 0 0 0 512 316.672z"  horiz-adv-x="1024" />

    
    <glyph glyph-name="xiaoshoujiageguanli" unicode="&#58939;" d="M533.9648 416.6144c216.832 0 380.3648 69.9904 380.3648 162.8672S750.7968 742.4 533.9136 742.4C317.1328 742.4 153.6 672.3584 153.6 579.4816c0-92.8768 163.4816-162.8672 380.3648-162.8672m0 284.672c199.936 0 339.2512-64.2048 339.2512-121.8048S733.9008 457.728 533.9648 457.728c-199.9872 0-339.3024 64.1536-339.3024 121.7536 0 57.6 139.3664 121.8048 339.3024 121.8048m0-457.2672c216.2176 0 379.2896 69.632 379.2896 161.8944 0 24.32-11.776 47.0016-32.4608 67.3792l-0.4096 0.4096-0.4096 0.4608-0.1024-0.1536a18.5856 18.5856 0 0 1-31.3344-13.7216c0-5.4784 2.4576-10.2912 6.2464-13.7216l-0.1024-0.0512c12.4928-12.5952 19.6096-27.9552 19.6096-40.6528 0-58.112-139.776-122.88-340.3264-122.88-200.5504 0-340.3264 64.768-340.3264 122.88 0 14.4896 4.096 26.88 20.0704 40.96a16.5376 16.5376 0 0 1 0.5632 0.512l0.3584 0.3584-0.1024 0.1024a18.432 18.432 0 0 1 5.0176 12.544 18.7392 18.7392 0 0 1-32 13.2608l-0.1024 0.1536c-20.992-20.48-32.8192-43.3152-32.8192-67.84 0-92.3136 163.072-161.8944 379.3408-161.8944m346.624 57.856l-0.3584 0.4608-0.1536-0.1024a18.4832 18.4832 0 0 1-12.544 5.0176 18.7392 18.7392 0 0 1-18.7904-18.688 18.432 18.432 0 0 1 6.2464-13.7728l-0.1024-0.0512c12.4928-12.5952 19.5584-27.9552 19.5584-40.6016 0-58.1632-139.776-122.88-340.2752-122.88-200.5504 0-340.3264 64.7168-340.3264 122.88 0 14.3872 4.096 26.8288 20.0192 40.96l0.5632 0.512c0.1536 0.0512 0.256 0.2048 0.3584 0.3072h-0.0512a18.6368 18.6368 0 0 1-26.9824 25.856l-0.1024 0.1536c-20.992-20.48-32.768-43.264-32.768-67.84 0-92.2624 163.0208-161.8944 379.2896-161.8944s379.2896 69.632 379.2896 161.8944c0 24.3712-11.776 47.0528-32.4608 67.3792l-0.4096 0.4608"  horiz-adv-x="1024" />

    
    <glyph glyph-name="dianchangguanli" unicode="&#58940;" d="M512 402.688A182.784 182.784 0 0 0 329.472 585.216 182.784 182.784 0 0 0 512 767.6928a182.784 182.784 0 0 0 182.528-182.4768A182.7328 182.7328 0 0 0 512 402.688z m0 322.3552A140.032 140.032 0 0 1 372.1728 585.216 140.032 140.032 0 0 1 512 445.3376a140.032 140.032 0 0 1 139.8272 139.8784A140.032 140.032 0 0 1 512 724.992z m269.0048-725.3504H242.9952c-39.936 0-69.9392 12.6464-89.1904 37.6832-17.408 22.3744-25.8048 54.2208-25.8048 97.4336 0 50.4832 17.3568 98.1504 51.5072 141.568 29.184 37.2736 70.7072 71.3216 123.3408 101.1712 15.1552 8.6528 32.8704 11.1104 49.8688 6.912 17.152-4.2496 31.6416-14.7968 40.8576-29.7472A137.8304 137.8304 0 0 1 512 289.28c58.5216 0 97.28 36.352 119.552 66.8672a74.24 74.24 0 0 0 94.6176 21.8624c59.648-30.72 98.2528-60.2624 125.0816-95.8464 30.1568-39.8336 44.7488-88.064 44.7488-147.3536 0-44.4416-7.5776-75.264-23.808-97.1776-19.0464-25.4976-48.8448-37.888-91.1872-37.888z m-444.6208 344.064a24.4224 24.4224 0 0 1-12.3904-3.2768c-69.9904-39.7312-153.344-107.7248-153.344-205.6704 0-76.6976 28.928-92.3136 72.3456-92.3136h538.0096c37.1712 0 50.3296 11.8272 56.9856 20.736 10.3424 13.9264 15.36 37.376 15.36 71.68 0 94.464-39.8336 150.1184-146.7904 205.312a31.7952 31.7952 0 0 1-40.6016-9.1136c-40.2944-55.1936-93.4912-84.3776-153.9584-84.3776a180.0704 180.0704 0 0 0-154.7264 85.7088 24.576 24.576 0 0 1-20.8896 11.3664z"  horiz-adv-x="1024" />

    


  </font>
</defs>
</svg>
